{
  "accessors": [
    {
      "bufferView": 0,
      "componentType": 5125,
      "count": 132,
      "type": "SCALAR"
    },
    {
      "bufferView": 1,
      "componentType": 5126,
      "count": 52,
      "max": [
        0.66642963886261,
        -0.218272745609283,
        0.804753541946411
      ],
      "min": [
        -0.366753190755844,
        -0.462713778018951,
        -0.992937803268433
      ],
      "type": "VEC3"
    },
    {
      "bufferView": 2,
      "componentType": 5126,
      "count": 52,
      "type": "VEC3"
    },
    {
      "bufferView": 3,
      "componentType": 5126,
      "count": 52,
      "type": "VEC2"
    },
    {
      "bufferView": 4,
      "componentType": 5125,
      "count": 264,
      "type": "SCALAR"
    },
    {
      "bufferView": 5,
      "componentType": 5126,
      "count": 108,
      "max": [
        -0.273637264966965,
        0.569845259189606,
        0.773589670658112
      ],
      "min": [
        -0.703554451465607,
        -0.262847363948822,
        -0.785367906093597
      ],
      "type": "VEC3"
    },
    {
      "bufferView": 6,
      "componentType": 5126,
      "count": 108,
      "type": "VEC3"
    },
    {
      "bufferView": 7,
      "componentType": 5126,
      "count": 108,
      "type": "VEC2"
    },
    {
      "bufferView": 8,
      "componentType": 5125,
      "count": 204,
      "type": "SCALAR"
    },
    {
      "bufferView": 9,
      "componentType": 5126,
      "count": 93,
      "max": [
        0.703554213047028,
        0.133406639099121,
        -0.721740424633026
      ],
      "min": [
        -0.504201292991638,
        -0.462713599205017,
        -1.0
      ],
      "type": "VEC3"
    },
    {
      "bufferView": 10,
      "componentType": 5126,
      "count": 93,
      "type": "VEC3"
    },
    {
      "bufferView": 11,
      "componentType": 5126,
      "count": 93,
      "type": "VEC2"
    },
    {
      "bufferView": 12,
      "componentType": 5125,
      "count": 1248,
      "type": "SCALAR"
    },
    {
      "bufferView": 13,
      "componentType": 5126,
      "count": 320,
      "max": [
        0.58923327922821,
        -0.334516078233719,
        0.957937657833099
      ],
      "min": [
        0.49071329832077,
        -0.569845259189606,
        0.859785556793213
      ],
      "type": "VEC3"
    },
    {
      "bufferView": 14,
      "componentType": 5126,
      "count": 320,
      "type": "VEC3"
    },
    {
      "bufferView": 15,
      "componentType": 5126,
      "count": 320,
      "type": "VEC2"
    },
    {
      "bufferView": 16,
      "componentType": 5125,
      "count": 1248,
      "type": "SCALAR"
    },
    {
      "bufferView": 17,
      "componentType": 5126,
      "count": 320,
      "max": [
        0.688435912132263,
        -0.334516078233719,
        -0.790867149829865
      ],
      "min": [
        0.589915871620178,
        -0.569845259189606,
        -0.889019191265106
      ],
      "type": "VEC3"
    },
    {
      "bufferView": 18,
      "componentType": 5126,
      "count": 320,
      "type": "VEC3"
    },
    {
      "bufferView": 19,
      "componentType": 5126,
      "count": 320,
      "type": "VEC2"
    },
    {
      "bufferView": 20,
      "componentType": 5125,
      "count": 1248,
      "type": "SCALAR"
    },
    {
      "bufferView": 21,
      "componentType": 5126,
      "count": 320,
      "max": [
        -0.35422545671463,
        -0.334516078233719,
        -0.821624636650085
      ],
      "min": [
        -0.452745467424393,
        -0.569845259189606,
        -0.919776618480682
      ],
      "type": "VEC3"
    },
    {
      "bufferView": 22,
      "componentType": 5126,
      "count": 320,
      "type": "VEC3"
    },
    {
      "bufferView": 23,
      "componentType": 5126,
      "count": 320,
      "type": "VEC2"
    },
    {
      "bufferView": 24,
      "componentType": 5125,
      "count": 1248,
      "type": "SCALAR"
    },
    {
      "bufferView": 25,
      "componentType": 5126,
      "count": 320,
      "max": [
        -0.453427791595459,
        -0.334516078233719,
        0.927180051803589
      ],
      "min": [
        -0.55194753408432,
        -0.569845259189606,
        0.829028010368347
      ],
      "type": "VEC3"
    },
    {
      "bufferView": 26,
      "componentType": 5126,
      "count": 320,
      "type": "VEC3"
    },
    {
      "bufferView": 27,
      "componentType": 5126,
      "count": 320,
      "type": "VEC2"
    },
    {
      "bufferView": 28,
      "componentType": 5125,
      "count": 204,
      "type": "SCALAR"
    },
    {
      "bufferView": 29,
      "componentType": 5126,
      "count": 93,
      "max": [
        0.652764499187469,
        0.133406639099121,
        0.999999940395355
      ],
      "min": [
        -0.554991006851196,
        -0.462713599205017,
        0.721740424633026
      ],
      "type": "VEC3"
    },
    {
      "bufferView": 30,
      "componentType": 5126,
      "count": 93,
      "type": "VEC3"
    },
    {
      "bufferView": 31,
      "componentType": 5126,
      "count": 93,
      "type": "VEC2"
    }
  ],
  "asset": {
    "generator": "Substance Painter 2019.2.0",
    "version": "2.0"
  },
  "bufferViews": [
    {
      "buffer": 0,
      "byteLength": 528,
      "target": 34963
    },
    {
      "buffer": 0,
      "byteLength": 624,
      "byteOffset": 528,
      "target": 34962
    },
    {
      "buffer": 0,
      "byteLength": 624,
      "byteOffset": 1152,
      "target": 34962
    },
    {
      "buffer": 0,
      "byteLength": 416,
      "byteOffset": 1776,
      "target": 34962
    },
    {
      "buffer": 0,
      "byteLength": 1056,
      "byteOffset": 2192,
      "target": 34963
    },
    {
      "buffer": 0,
      "byteLength": 1296,
      "byteOffset": 3248,
      "target": 34962
    },
    {
      "buffer": 0,
      "byteLength": 1296,
      "byteOffset": 4544,
      "target": 34962
    },
    {
      "buffer": 0,
      "byteLength": 864,
      "byteOffset": 5840,
      "target": 34962
    },
    {
      "buffer": 0,
      "byteLength": 816,
      "byteOffset": 6704,
      "target": 34963
    },
    {
      "buffer": 0,
      "byteLength": 1116,
      "byteOffset": 7520,
      "target": 34962
    },
    {
      "buffer": 0,
      "byteLength": 1116,
      "byteOffset": 8636,
      "target": 34962
    },
    {
      "buffer": 0,
      "byteLength": 744,
      "byteOffset": 9752,
      "target": 34962
    },
    {
      "buffer": 0,
      "byteLength": 4992,
      "byteOffset": 10496,
      "target": 34963
    },
    {
      "buffer": 0,
      "byteLength": 3840,
      "byteOffset": 15488,
      "target": 34962
    },
    {
      "buffer": 0,
      "byteLength": 3840,
      "byteOffset": 19328,
      "target": 34962
    },
    {
      "buffer": 0,
      "byteLength": 2560,
      "byteOffset": 23168,
      "target": 34962
    },
    {
      "buffer": 0,
      "byteLength": 4992,
      "byteOffset": 25728,
      "target": 34963
    },
    {
      "buffer": 0,
      "byteLength": 3840,
      "byteOffset": 30720,
      "target": 34962
    },
    {
      "buffer": 0,
      "byteLength": 3840,
      "byteOffset": 34560,
      "target": 34962
    },
    {
      "buffer": 0,
      "byteLength": 2560,
      "byteOffset": 38400,
      "target": 34962
    },
    {
      "buffer": 0,
      "byteLength": 4992,
      "byteOffset": 40960,
      "target": 34963
    },
    {
      "buffer": 0,
      "byteLength": 3840,
      "byteOffset": 45952,
      "target": 34962
    },
    {
      "buffer": 0,
      "byteLength": 3840,
      "byteOffset": 49792,
      "target": 34962
    },
    {
      "buffer": 0,
      "byteLength": 2560,
      "byteOffset": 53632,
      "target": 34962
    },
    {
      "buffer": 0,
      "byteLength": 4992,
      "byteOffset": 56192,
      "target": 34963
    },
    {
      "buffer": 0,
      "byteLength": 3840,
      "byteOffset": 61184,
      "target": 34962
    },
    {
      "buffer": 0,
      "byteLength": 3840,
      "byteOffset": 65024,
      "target": 34962
    },
    {
      "buffer": 0,
      "byteLength": 2560,
      "byteOffset": 68864,
      "target": 34962
    },
    {
      "buffer": 0,
      "byteLength": 816,
      "byteOffset": 71424,
      "target": 34963
    },
    {
      "buffer": 0,
      "byteLength": 1116,
      "byteOffset": 72240,
      "target": 34962
    },
    {
      "buffer": 0,
      "byteLength": 1116,
      "byteOffset": 73356,
      "target": 34962
    },
    {
      "buffer": 0,
      "byteLength": 744,
      "byteOffset": 74472,
      "target": 34962
    }
  ],
  "buffers": [
    {
      "byteLength": 75216,
      "uri": "Untitled.bin"
    }
  ],
  "images": [
    {
      "uri": "Metal_Dark2_baseColor.png"
    },
    {
      "uri": "Metal_Dark2_occlusionRoughnessMetallic.png"
    },
    {
      "uri": "Metal_Dark2_normal.png"
    },
    {
      "uri": "Sofa2_baseColor.png"
    },
    {
      "uri": "Sofa2_occlusionRoughnessMetallic.png"
    },
    {
      "uri": "Sofa2_normal.png"
    }
  ],
  "materials": [
    {
      "alphaMode": "OPAQUE",
      "name": "Metal_Dark2",
      "normalTexture": {
        "index": 2
      },
      "occlusionTexture": {
        "index": 1
      },
      "pbrMetallicRoughness": {
        "baseColorTexture": {
          "index": 0
        },
        "metallicRoughnessTexture": {
          "index": 1
        }
      }
    },
    {
      "alphaMode": "OPAQUE",
      "name": "Sofa2",
      "normalTexture": {
        "index": 5
      },
      "occlusionTexture": {
        "index": 4
      },
      "pbrMetallicRoughness": {
        "baseColorTexture": {
          "index": 3
        },
        "metallicRoughnessTexture": {
          "index": 4
        }
      }
    }
  ],
  "meshes": [
    {
      "name": "pCube15",
      "primitives": [
        {
          "attributes": {
            "NORMAL": 2,
            "POSITION": 1,
            "TEXCOORD_0": 3
          },
          "indices": 0,
          "material": 1,
          "mode": 4
        }
      ]
    },
    {
      "name": "pCube18",
      "primitives": [
        {
          "attributes": {
            "NORMAL": 6,
            "POSITION": 5,
            "TEXCOORD_0": 7
          },
          "indices": 4,
          "material": 1,
          "mode": 4
        }
      ]
    },
    {
      "name": "pCube17",
      "primitives": [
        {
          "attributes": {
            "NORMAL": 10,
            "POSITION": 9,
            "TEXCOORD_0": 11
          },
          "indices": 8,
          "material": 1,
          "mode": 4
        }
      ]
    },
    {
      "name": "pCylinder35",
      "primitives": [
        {
          "attributes": {
            "NORMAL": 14,
            "POSITION": 13,
            "TEXCOORD_0": 15
          },
          "indices": 12,
          "material": 0,
          "mode": 4
        }
      ]
    },
    {
      "name": "pCylinder36",
      "primitives": [
        {
          "attributes": {
            "NORMAL": 18,
            "POSITION": 17,
            "TEXCOORD_0": 19
          },
          "indices": 16,
          "material": 0,
          "mode": 4
        }
      ]
    },
    {
      "name": "pCylinder37",
      "primitives": [
        {
          "attributes": {
            "NORMAL": 22,
            "POSITION": 21,
            "TEXCOORD_0": 23
          },
          "indices": 20,
          "material": 0,
          "mode": 4
        }
      ]
    },
    {
      "name": "pCylinder38",
      "primitives": [
        {
          "attributes": {
            "NORMAL": 26,
            "POSITION": 25,
            "TEXCOORD_0": 27
          },
          "indices": 24,
          "material": 0,
          "mode": 4
        }
      ]
    },
    {
      "name": "pCube80",
      "primitives": [
        {
          "attributes": {
            "NORMAL": 30,
            "POSITION": 29,
            "TEXCOORD_0": 31
          },
          "indices": 28,
          "material": 1,
          "mode": 4
        }
      ]
    }
  ],
  "nodes": [
    {
      "children": [
        1,
        3,
        5,
        7,
        9,
        11,
        13,
        15
      ],
      "name": "root",
      "scale": [
        0.9881591796875,
        0.9881591796875,
        0.9881591796875
      ],
      "translation": [
        -3.48342704772949,
        0.636738300323486,
        0.57317715883255
      ]
    },
    {
      "children": [
        2
      ],
      "name": "pCube15"
    },
    {
      "mesh": 0,
      "name": "pCube15"
    },
    {
      "children": [
        4
      ],
      "name": "pCube18"
    },
    {
      "mesh": 1,
      "name": "pCube18"
    },
    {
      "children": [
        6
      ],
      "name": "pCube17"
    },
    {
      "mesh": 2,
      "name": "pCube17"
    },
    {
      "children": [
        8
      ],
      "name": "pCylinder35"
    },
    {
      "mesh": 3,
      "name": "pCylinder35"
    },
    {
      "children": [
        10
      ],
      "name": "pCylinder36"
    },
    {
      "mesh": 4,
      "name": "pCylinder36"
    },
    {
      "children": [
        12
      ],
      "name": "pCylinder37"
    },
    {
      "mesh": 5,
      "name": "pCylinder37"
    },
    {
      "children": [
        14
      ],
      "name": "pCylinder38"
    },
    {
      "mesh": 6,
      "name": "pCylinder38"
    },
    {
      "children": [
        16
      ],
      "name": "pCube80"
    },
    {
      "mesh": 7,
      "name": "pCube80"
    }
  ],
  "samplers": [
    {
      "magFilter": 9729,
      "minFilter": 9985,
      "wrapS": 10497,
      "wrapT": 10497
    }
  ],
  "scene": 0,
  "scenes": [
    {
      "name": "Scene",
      "nodes": [
        0
      ]
    }
  ],
  "textures": [
    {
      "sampler": 0,
      "source": 0
    },
    {
      "sampler": 0,
      "source": 1
    },
    {
      "sampler": 0,
      "source": 2
    },
    {
      "sampler": 0,
      "source": 3
    },
    {
      "sampler": 0,
      "source": 4
    },
    {
      "sampler": 0,
      "source": 5
    }
  ]
}